<?xml version="1.0" encoding="UTF-8" standalone="no" ?>
<!DOCTYPE svg PUBLIC "-//W3C//DTD SVG 1.1//EN" "http://www.w3.org/Graphics/SVG/1.1/DTD/svg11.dtd">
<svg xmlns="http://www.w3.org/2000/svg" xmlns:xlink="http://www.w3.org/1999/xlink" version="1.1" width="1080" height="1080" viewBox="0 0 1080 1080" xml:space="preserve">
<desc>Created with Fabric.js 5.2.4</desc>
<defs>
</defs>
<rect x="0" y="0" width="100%" height="100%" fill="transparent"></rect>
<g transform="matrix(1 0 0 1 540 540)" id="ebf3ff9c-e743-406e-9a47-299971c2cb71"  >
<rect style="stroke: none; stroke-width: 1; stroke-dasharray: none; stroke-linecap: butt; stroke-dashoffset: 0; stroke-linejoin: miter; stroke-miterlimit: 4; fill: rgb(255,255,255); fill-rule: nonzero; opacity: 1; visibility: hidden;" vector-effect="non-scaling-stroke"  x="-540" y="-540" rx="0" ry="0" width="1080" height="1080" />
</g>
<g transform="matrix(1 0 0 1 540 540)" id="1ab80b02-450a-473b-8263-d23bc0d72faf"  >
</g>
<g transform="matrix(1.28 0 0 1 395.58 355.88)" id="38e5dcca-ed4b-48db-8443-cd96f4d991d3"  >
<rect style="stroke: rgb(0,0,0); stroke-width: 0; stroke-dasharray: none; stroke-linecap: butt; stroke-dashoffset: 0; stroke-linejoin: miter; stroke-miterlimit: 4; fill: rgb(101,101,101); fill-rule: nonzero; opacity: 1;" vector-effect="non-scaling-stroke"  x="-37.4585" y="-19.4165" rx="0" ry="0" width="74.917" height="38.833" />
</g>
<g transform="matrix(1.28 0 0 1 540 352.41)" id="38e5dcca-ed4b-48db-8443-cd96f4d991d3"  >
<rect style="stroke: rgb(0,0,0); stroke-width: 0; stroke-dasharray: none; stroke-linecap: butt; stroke-dashoffset: 0; stroke-linejoin: miter; stroke-miterlimit: 4; fill: rgb(101,101,101); fill-rule: nonzero; opacity: 1;" vector-effect="non-scaling-stroke"  x="-37.46" y="-19.415" rx="0" ry="0" width="74.92" height="38.83" />
</g>
<g transform="matrix(1.28 0 0 1 680.23 355.68)" id="38e5dcca-ed4b-48db-8443-cd96f4d991d3"  >
<rect style="stroke: rgb(0,0,0); stroke-width: 0; stroke-dasharray: none; stroke-linecap: butt; stroke-dashoffset: 0; stroke-linejoin: miter; stroke-miterlimit: 4; fill: rgb(101,101,101); fill-rule: nonzero; opacity: 1;" vector-effect="non-scaling-stroke"  x="-37.46" y="-19.415" rx="0" ry="0" width="74.92" height="38.83" />
</g>
<g transform="matrix(2.42 0 0 3.67 540 489.22)" id="c0b61b26-9828-4048-94d3-38901376dfa3"  >
<path style="stroke: rgb(0,0,0); stroke-width: 0; stroke-dasharray: none; stroke-linecap: butt; stroke-dashoffset: 0; stroke-linejoin: miter; stroke-miterlimit: 4; fill: rgb(101,101,101); fill-rule: nonzero; opacity: 1;" vector-effect="non-scaling-stroke"  transform=" translate(-50, -50)" d="M 81.123 47.531 C 83.818 50.271 83.818 54.711999999999996 81.123 57.405 L 54.954 83.574 C 52.214 86.315 47.82 86.315 45.081 83.574 L 18.91 57.405 C 16.169 54.712 16.169 50.271 18.91 47.531 C 22.689 43.988 33.082 51.784 42.436 55.42 L 42.436 18.999 C 42.436 16.448 44.513 14.37 47.064 14.37 L 54.055 14.37 C 56.607 14.37 58.684 16.448 58.684 18.999 L 58.684 54.947 C 67.518 51.216 76.967 44.319 81.123 47.531 z" stroke-linecap="round" />
</g>
<g transform="matrix(1 0 0 1 540 614.1)" id="3fd2ffd7-a18e-4c12-b6ab-3ea3bf757842"  >
<rect style="stroke: rgb(0,0,0); stroke-width: 0; stroke-dasharray: none; stroke-linecap: butt; stroke-dashoffset: 0; stroke-linejoin: miter; stroke-miterlimit: 4; fill: rgb(101,101,101); fill-rule: nonzero; opacity: 1;" vector-effect="non-scaling-stroke"  x="-33.0835" y="-33.0835" rx="0" ry="0" width="66.167" height="66.167" />
</g>
<g transform="matrix(1.2 1.2 -1.22 1.22 436.13 457.67)" id="77428941-fca4-444f-a9fb-8d412c733b88"  >
<path style="stroke: rgb(0,0,0); stroke-width: 0; stroke-dasharray: none; stroke-linecap: butt; stroke-dashoffset: 0; stroke-linejoin: miter; stroke-miterlimit: 4; fill: rgb(101,101,101); fill-rule: nonzero; opacity: 1;" vector-effect="non-scaling-stroke"  transform=" translate(-50, -50)" d="M 94.75 50 C 94.75 56.213 89.514 61.25 83.054 61.25 L 16.946 61.25 C 10.486 61.25 5.25 56.213 5.25 50 L 5.25 50 C 5.25 43.787 10.486 38.75 16.945999999999998 38.75 L 83.053 38.75 C 89.514 38.75 94.75 43.787 94.75 50 L 94.75 50 z" stroke-linecap="round" />
</g>
<g transform="matrix(-1.27 1.27 -1.22 -1.22 641.49 466.51)"  >
<path style="stroke: rgb(0,0,0); stroke-width: 0; stroke-dasharray: none; stroke-linecap: butt; stroke-dashoffset: 0; stroke-linejoin: miter; stroke-miterlimit: 4; fill: rgb(101,101,101); fill-rule: nonzero; opacity: 1;" vector-effect="non-scaling-stroke"  transform=" translate(-50, -50)" d="M 94.75 50 C 94.75 56.213 89.514 61.25 83.054 61.25 L 16.946 61.25 C 10.486 61.25 5.25 56.213 5.25 50 L 5.25 50 C 5.25 43.787 10.486 38.75 16.945999999999998 38.75 L 83.053 38.75 C 89.514 38.75 94.75 43.787 94.75 50 L 94.75 50 z" stroke-linecap="round" />
</g>
<g transform="matrix(0.62 0 0 0.91 396.46 384.2)" id="b7875a76-ce93-404c-9d93-1ea970a3b629"  >
<rect style="stroke: rgb(0,0,0); stroke-width: 0; stroke-dasharray: none; stroke-linecap: butt; stroke-dashoffset: 0; stroke-linejoin: miter; stroke-miterlimit: 4; fill: rgb(101,101,101); fill-rule: nonzero; opacity: 1;" vector-effect="non-scaling-stroke"  x="-33.0835" y="-33.0835" rx="0" ry="0" width="66.167" height="66.167" />
</g>
<g transform="matrix(0.67 0 0 0.98 681.98 394.41)" id="b7875a76-ce93-404c-9d93-1ea970a3b629"  >
<rect style="stroke: rgb(0,0,0); stroke-width: 0; stroke-dasharray: none; stroke-linecap: butt; stroke-dashoffset: 0; stroke-linejoin: miter; stroke-miterlimit: 4; fill: rgb(101,101,101); fill-rule: nonzero; opacity: 1;" vector-effect="non-scaling-stroke"  x="-33.085" y="-33.085" rx="0" ry="0" width="66.17" height="66.17" />
</g>
<g transform="matrix(-1 0 0 -1 396.3 281.79)" id="a16e90d5-0d45-4764-b8f5-53d8265ce34a"  >
<path style="stroke: rgb(0,0,0); stroke-width: 0; stroke-dasharray: none; stroke-linecap: butt; stroke-dashoffset: 0; stroke-linejoin: miter; stroke-miterlimit: 4; fill: rgb(101,101,101); fill-rule: nonzero; opacity: 1;" vector-effect="non-scaling-stroke"  transform=" translate(-50, -50)" d="M 81.866 18.883 C 78.577 15.594 74.54 13.998999999999999 69.80799999999999 14.049 C 62.38099999999999 14.149 56.001999999999995 18.183999999999997 50.773999999999994 26.208 L 50.773999999999994 26.157999999999998 L 49.47599999999999 28.549 C 49.47599999999999 28.549 48.92999999999999 27.502 48.129999999999995 26.058 L 48.129999999999995 26.257 C 46.187 22.271 43.69799999999999 19.330000000000002 40.706999999999994 17.337000000000003 C 37.71699999999999 15.394000000000004 34.37899999999999 14.446000000000003 30.791999999999994 14.446000000000003 C 26.056999999999995 14.496000000000004 21.919999999999995 16.041000000000004 18.383999999999993 18.981 C 14.843999999999994 21.972 13.151999999999994 25.808 13.151999999999994 30.441000000000003 C 13.199999999999994 32.036 13.700999999999993 34.378 14.645999999999994 37.418000000000006 C 16.440999999999995 41.952000000000005 21.076999999999995 47.83200000000001 28.697999999999993 55.10600000000001 C 36.27199999999999 62.38100000000001 41.556 67.81200000000001 44.49499999999999 71.4 C 47.48499999999999 74.938 49.42899999999999 79.822 50.32499999999999 85.95100000000001 C 51.07399999999999 80.569 53.86099999999999 75.138 58.79599999999999 69.756 C 63.72999999999999 64.324 69.359 58.346000000000004 75.73899999999999 51.769000000000005 C 82.06599999999999 45.19200000000001 85.60199999999999 40.159000000000006 86.303 36.62100000000001 C 86.7 35.37600000000001 86.849 33.732000000000006 86.849 31.640000000000008 C 86.8 26.457 85.104 22.172 81.866 18.883 z" stroke-linecap="round" />
</g>
<g transform="matrix(0.69 0 0 0.45 395.21 307.06)" id="5e46507e-0471-4501-8175-5864d2723343"  >
<rect style="stroke: rgb(0,0,0); stroke-width: 0; stroke-dasharray: none; stroke-linecap: butt; stroke-dashoffset: 0; stroke-linejoin: miter; stroke-miterlimit: 4; fill: rgb(101,101,101); fill-rule: nonzero; opacity: 1;" vector-effect="non-scaling-stroke"  x="-37.4585" y="-19.4165" rx="0" ry="0" width="74.917" height="38.833" />
</g>
<g transform="matrix(-1 0 0 -1 540 276.07)"  >
<path style="stroke: rgb(0,0,0); stroke-width: 0; stroke-dasharray: none; stroke-linecap: butt; stroke-dashoffset: 0; stroke-linejoin: miter; stroke-miterlimit: 4; fill: rgb(101,101,101); fill-rule: nonzero; opacity: 1;" vector-effect="non-scaling-stroke"  transform=" translate(-50, -50)" d="M 81.866 18.883 C 78.577 15.594 74.54 13.998999999999999 69.80799999999999 14.049 C 62.38099999999999 14.149 56.001999999999995 18.183999999999997 50.773999999999994 26.208 L 50.773999999999994 26.157999999999998 L 49.47599999999999 28.549 C 49.47599999999999 28.549 48.92999999999999 27.502 48.129999999999995 26.058 L 48.129999999999995 26.257 C 46.187 22.271 43.69799999999999 19.330000000000002 40.706999999999994 17.337000000000003 C 37.71699999999999 15.394000000000004 34.37899999999999 14.446000000000003 30.791999999999994 14.446000000000003 C 26.056999999999995 14.496000000000004 21.919999999999995 16.041000000000004 18.383999999999993 18.981 C 14.843999999999994 21.972 13.151999999999994 25.808 13.151999999999994 30.441000000000003 C 13.199999999999994 32.036 13.700999999999993 34.378 14.645999999999994 37.418000000000006 C 16.440999999999995 41.952000000000005 21.076999999999995 47.83200000000001 28.697999999999993 55.10600000000001 C 36.27199999999999 62.38100000000001 41.556 67.81200000000001 44.49499999999999 71.4 C 47.48499999999999 74.938 49.42899999999999 79.822 50.32499999999999 85.95100000000001 C 51.07399999999999 80.569 53.86099999999999 75.138 58.79599999999999 69.756 C 63.72999999999999 64.324 69.359 58.346000000000004 75.73899999999999 51.769000000000005 C 82.06599999999999 45.19200000000001 85.60199999999999 40.159000000000006 86.303 36.62100000000001 C 86.7 35.37600000000001 86.849 33.732000000000006 86.849 31.640000000000008 C 86.8 26.457 85.104 22.172 81.866 18.883 z" stroke-linecap="round" />
</g>
<g transform="matrix(0.69 0 0 0.45 538.85 301.32)" id="5e46507e-0471-4501-8175-5864d2723343"  >
<rect style="stroke: rgb(0,0,0); stroke-width: 0; stroke-dasharray: none; stroke-linecap: butt; stroke-dashoffset: 0; stroke-linejoin: miter; stroke-miterlimit: 4; fill: rgb(101,101,101); fill-rule: nonzero; opacity: 1;" vector-effect="non-scaling-stroke"  x="-37.46" y="-19.415" rx="0" ry="0" width="74.92" height="38.83" />
</g>
<g transform="matrix(-1 0 0 -1 677.98 277.09)"  >
<path style="stroke: rgb(0,0,0); stroke-width: 0; stroke-dasharray: none; stroke-linecap: butt; stroke-dashoffset: 0; stroke-linejoin: miter; stroke-miterlimit: 4; fill: rgb(101,101,101); fill-rule: nonzero; opacity: 1;" vector-effect="non-scaling-stroke"  transform=" translate(-50, -50)" d="M 81.866 18.883 C 78.577 15.594 74.54 13.998999999999999 69.80799999999999 14.049 C 62.38099999999999 14.149 56.001999999999995 18.183999999999997 50.773999999999994 26.208 L 50.773999999999994 26.157999999999998 L 49.47599999999999 28.549 C 49.47599999999999 28.549 48.92999999999999 27.502 48.129999999999995 26.058 L 48.129999999999995 26.257 C 46.187 22.271 43.69799999999999 19.330000000000002 40.706999999999994 17.337000000000003 C 37.71699999999999 15.394000000000004 34.37899999999999 14.446000000000003 30.791999999999994 14.446000000000003 C 26.056999999999995 14.496000000000004 21.919999999999995 16.041000000000004 18.383999999999993 18.981 C 14.843999999999994 21.972 13.151999999999994 25.808 13.151999999999994 30.441000000000003 C 13.199999999999994 32.036 13.700999999999993 34.378 14.645999999999994 37.418000000000006 C 16.440999999999995 41.952000000000005 21.076999999999995 47.83200000000001 28.697999999999993 55.10600000000001 C 36.27199999999999 62.38100000000001 41.556 67.81200000000001 44.49499999999999 71.4 C 47.48499999999999 74.938 49.42899999999999 79.822 50.32499999999999 85.95100000000001 C 51.07399999999999 80.569 53.86099999999999 75.138 58.79599999999999 69.756 C 63.72999999999999 64.324 69.359 58.346000000000004 75.73899999999999 51.769000000000005 C 82.06599999999999 45.19200000000001 85.60199999999999 40.159000000000006 86.303 36.62100000000001 C 86.7 35.37600000000001 86.849 33.732000000000006 86.849 31.640000000000008 C 86.8 26.457 85.104 22.172 81.866 18.883 z" stroke-linecap="round" />
</g>
<g transform="matrix(0.69 0 0 0.45 676.83 302.34)" id="5e46507e-0471-4501-8175-5864d2723343"  >
<rect style="stroke: rgb(0,0,0); stroke-width: 0; stroke-dasharray: none; stroke-linecap: butt; stroke-dashoffset: 0; stroke-linejoin: miter; stroke-miterlimit: 4; fill: rgb(101,101,101); fill-rule: nonzero; opacity: 1;" vector-effect="non-scaling-stroke"  x="-37.46" y="-19.415" rx="0" ry="0" width="74.92" height="38.83" />
</g>
</svg>